# xmcd
#
# Track frame offsets:
#	150
#	38720
#	78210
#	130093
#	157584
#	192759
#	206993
#	231623
#
# Disc length: 3357 seconds
#
# Revision: 1
# Processed by: cddbd v1.5.2PL0 Copyright (c) Steve Scherf et al.
# Submitted via: audiograbber 1.83.01
#
DISCID=600d1b08
DTITLE=Grateful Dead - 85-06-15 Greek Theatre, Berkeley CA
DYEAR=1900
DGENRE=
TTITLE0=Touch Of Grey
TTITLE1=New Minglewood Blues
TTITLE2=Friend Of The Devil
TTITLE3=Cassidy
TTITLE4=Dupree's Diamond Blues
TTITLE5=Me and My Uncle
TTITLE6=Big River
TTITLE7=Might As Well
EXTD=
EXTT0=
EXTT1=
EXTT2=
EXTT3=
EXTT4=
EXTT5=
EXTT6=
EXTT7=
PLAYORDER=
